<?xml version="1.0" encoding="utf-8"?>
<!-- Generator: Adobe Illustrator 15.1.0, SVG Export Plug-In . SVG Version: 6.00 Build 0)  -->
<!DOCTYPE svg PUBLIC "-//W3C//DTD SVG 1.1//EN" "http://www.w3.org/Graphics/SVG/1.1/DTD/svg11.dtd">
<svg version="1.1" id="Layer_1" xmlns="http://www.w3.org/2000/svg" xmlns:xlink="http://www.w3.org/1999/xlink" x="0px" y="0px"
	 width="20px" height="20px" viewBox="0 0 20 20" enable-background="new 0 0 20 20" xml:space="preserve">
<circle fill="#FFFFFF" stroke="#999999" stroke-miterlimit="10" cx="10" cy="10" r="9.184"/>
<path fill="#FFFFFF" stroke="#999999" stroke-miterlimit="10" d="M10.036,10.023c0,0.033-0.016,0.06-0.036,0.06l0,0
	c-0.02,0-0.036-0.027-0.036-0.06v-6.9c0-0.033,0.016-0.06,0.036-0.06l0,0c0.02,0,0.036,0.027,0.036,0.06V10.023z"/>
<path fill="#FFFFFF" stroke="#999999" stroke-miterlimit="10" d="M10.024,10.083c-0.033,0-0.06-0.016-0.06-0.036l0,0
	c0-0.021,0.027-0.036,0.06-0.036h5.509c0.033,0,0.061,0.016,0.061,0.036l0,0c0,0.021-0.027,0.036-0.061,0.036H10.024z"/>
</svg>
